<svg width="145" height="72" viewBox="0 0 145 72" fill="none" xmlns="http://www.w3.org/2000/svg">
<g filter="url(#filter0_dd_13333_2477)">
<path d="M30.0488 25.5C30.2559 25.1413 30.7146 25.0186 31.0732 25.2256C31.432 25.4327 31.5548 25.8913 31.3477 26.25C31.0844 26.7059 30.7059 27.0844 30.25 27.3477C29.7939 27.611 29.2766 27.75 28.75 27.75C28.2234 27.75 27.7061 27.611 27.25 27.3477C26.7941 27.0844 26.4156 26.7059 26.1523 26.25C25.9452 25.8913 26.068 25.4327 26.4268 25.2256C26.7855 25.0186 27.2441 25.1413 27.4512 25.5C27.5828 25.728 27.772 25.9172 28 26.0488C28.228 26.1805 28.4867 26.25 28.75 26.25C29.0133 26.25 29.272 26.1805 29.5 26.0488C29.728 25.9172 29.9172 25.728 30.0488 25.5Z" fill="white"/>
<path fill-rule="evenodd" clip-rule="evenodd" d="M32.75 10C33.6364 10 34.5141 10.1745 35.333 10.5137C36.152 10.8529 36.8966 11.3498 37.5234 11.9766C38.1502 12.6034 38.6471 13.348 38.9863 14.167C39.3255 14.9859 39.5 15.8636 39.5 16.75V19.4004C41.6805 20.8112 43.1894 23.1652 43.458 25.8926C43.501 26.3296 43.5 26.8393 43.5 27.75C43.5 28.6607 43.501 29.1704 43.458 29.6074C43.0488 33.7617 39.7617 37.0488 35.6074 37.458C35.1704 37.501 34.6607 37.5 33.75 37.5H31.75C31.0337 37.5 30.5655 37.4992 30.1855 37.4785C30.1645 37.4805 30.1432 37.4837 30.1221 37.4854L30.1211 37.4736C30.0419 37.4687 29.9661 37.4652 29.8926 37.458C25.7383 37.0488 22.4512 33.7617 22.042 29.6074C21.999 29.1704 22 28.6607 22 27.75C22 26.8393 21.999 26.3296 22.042 25.8926C22.3106 23.1652 23.8195 20.8112 26 19.4004V16.75C26 15.8636 26.1745 14.9859 26.5137 14.167C26.8529 13.348 27.3498 12.6034 27.9766 11.9766C28.6034 11.3498 29.348 10.8529 30.167 10.5137C30.9859 10.1745 31.8636 10 32.75 10ZM34.5 20.7285C34.5 21.8749 34.501 22.3781 34.5693 22.8662C34.6315 23.3104 34.7349 23.7488 34.8779 24.1738C35.0351 24.641 35.2588 25.0918 35.7715 26.1172L36.792 28.1572C36.8791 28.3314 36.9736 28.5129 37.0234 28.6885C37.2446 29.4686 36.9004 30.2991 36.1924 30.6943C36.033 30.7832 35.8379 30.8447 35.6533 30.9062L35.4951 30.959C35.3514 31.0069 35.311 31.0203 35.2793 31.0332C34.8351 31.2137 34.5327 31.6328 34.502 32.1113C34.4998 32.1454 34.5 32.1882 34.5 32.3418C34.5 32.7039 34.5006 32.9295 34.4854 33.123C34.3978 34.2343 33.9304 35.2359 33.2129 36H33.75C34.6965 36 35.1157 35.9988 35.4609 35.9648C38.9028 35.6257 41.6257 32.9028 41.9648 29.4609C41.9988 29.1157 42 28.6965 42 27.75C42 26.8035 41.9988 26.3843 41.9648 26.0391C41.6257 22.5972 38.9028 19.8743 35.4609 19.5352C35.2242 19.5118 34.9526 19.5056 34.5 19.5029V20.7285ZM31.75 19.5C30.8035 19.5 30.3843 19.5012 30.0391 19.5352C26.5972 19.8743 23.8743 22.5972 23.5352 26.0391C23.5012 26.3843 23.5 26.8035 23.5 27.75C23.5 28.6965 23.5012 29.1157 23.5352 29.4609C23.8743 32.9028 26.5972 35.6257 30.0391 35.9648C30.0739 35.9683 30.1097 35.9689 30.1465 35.9717C31.6728 35.7845 32.8676 34.5509 32.9893 33.0049C32.9987 32.8851 33 32.7328 33 32.3418C33 32.2097 32.9989 32.1093 33.0049 32.0156C33.0725 30.9627 33.7373 30.0407 34.7148 29.6436C34.8018 29.6082 34.8966 29.5774 35.0205 29.5361L35.1797 29.4824C35.2928 29.4447 35.3619 29.4222 35.4131 29.4033C35.4415 29.3928 35.4564 29.3862 35.4619 29.3838C35.5627 29.3272 35.6116 29.2089 35.5801 29.0977C35.5778 29.0918 35.5719 29.0774 35.5596 29.0508C35.5367 29.0011 35.5039 28.9355 35.4502 28.8281L34.4297 26.7881C33.9347 25.7982 33.6542 25.2403 33.4561 24.6514C33.2835 24.1385 33.159 23.6101 33.084 23.0742C32.9979 22.4589 33 21.8351 33 20.7285V19.5H31.75ZM32.75 11.5C32.0607 11.5 31.3781 11.6357 30.7412 11.8994C30.1043 12.1633 29.5256 12.5506 29.0381 13.0381C28.5506 13.5256 28.1633 14.1043 27.8994 14.7412C27.6357 15.3781 27.5 16.0607 27.5 16.75V18.626C28.2513 18.3254 29.0541 18.1246 29.8926 18.042C30.3296 17.999 30.8393 18 31.75 18H33.75C34.6607 18 35.1704 17.999 35.6074 18.042C36.4459 18.1246 37.2487 18.3254 38 18.626V16.75C38 16.0607 37.8643 15.3781 37.6006 14.7412C37.3368 14.1043 36.9494 13.5256 36.4619 13.0381C35.9744 12.5506 35.3957 12.1633 34.7588 11.8994C34.1219 11.6357 33.4393 11.5 32.75 11.5Z" fill="white"/>
</g>
<path fill-rule="evenodd" clip-rule="evenodd" d="M55.7144 20.5214C56.6477 20.5214 57.4884 20.7449 58.2351 21.1929C58.9817 21.6284 59.5729 22.2321 60.0084 23.0036C60.4439 23.7626 60.6615 24.6461 60.6616 25.6539C60.6616 26.6495 60.4439 27.5337 60.0084 28.3053C59.5729 29.0642 58.9816 29.6613 58.2351 30.0968C57.4884 30.5323 56.6477 30.75 55.7144 30.75C54.7813 30.7499 53.9413 30.5323 53.1947 30.0968C52.4483 29.6613 51.8511 29.0641 51.4032 28.3053C50.9677 27.5337 50.75 26.6495 50.75 25.6539C50.7501 24.6461 50.9677 23.7626 51.4032 23.0036C51.8512 22.2322 52.4482 21.6284 53.1947 21.1929C53.9413 20.7449 54.7813 20.5215 55.7144 20.5214ZM55.7144 22.238C55.1422 22.2381 54.6195 22.3881 54.1467 22.6866C53.674 22.9728 53.3003 23.3706 53.0266 23.8806C52.7529 24.3783 52.6165 24.9697 52.6165 25.6539C52.6165 26.3134 52.7529 26.8988 53.0266 27.409C53.3004 27.9192 53.6738 28.3178 54.1467 28.604C54.6195 28.8902 55.1422 29.0333 55.7144 29.0334C56.2867 29.0334 56.8035 28.8901 57.2639 28.604C57.7367 28.3178 58.1102 27.9192 58.384 27.409C58.6577 26.8988 58.7951 26.3135 58.7951 25.6539C58.7951 24.9697 58.6577 24.3783 58.384 23.8806C58.1102 23.3706 57.7367 22.9728 57.2639 22.6866C56.8035 22.388 56.2868 22.238 55.7144 22.238Z" fill="white"/>
<path fill-rule="evenodd" clip-rule="evenodd" d="M80.9993 20.5214C81.5344 20.5214 82.0268 20.6085 82.4748 20.7827C82.935 20.9568 83.333 21.1805 83.6688 21.4541C83.8478 21.5999 84.0026 21.7525 84.1357 21.9089V21.5473C84.1358 21.2862 84.223 21.0624 84.397 20.8759C84.5837 20.6892 84.8081 20.5953 85.0694 20.5953C85.3431 20.5954 85.5667 20.6893 85.7409 20.8759C85.915 21.05 86.0021 21.2737 86.0022 21.5473V29.6117C86.0022 29.8855 85.9151 30.1157 85.7409 30.3024C85.5668 30.4764 85.343 30.5636 85.0694 30.5637C84.8081 30.5637 84.5837 30.4766 84.397 30.3024C84.2228 30.1157 84.1357 29.8854 84.1357 29.6117V29.2289C83.9741 29.4471 83.7702 29.6628 83.52 29.873C83.2089 30.1219 82.8412 30.3337 82.4181 30.508C81.9952 30.6696 81.5411 30.75 81.056 30.75C80.1973 30.75 79.4253 30.5323 78.7409 30.0968C78.0566 29.6489 77.5156 29.0391 77.1175 28.2678C76.7193 27.4963 76.52 26.6188 76.52 25.6357C76.52 24.6278 76.7193 23.7445 77.1175 22.9854C77.5157 22.2138 78.0507 21.6102 78.7227 21.1746C79.407 20.7392 80.1657 20.5215 80.9993 20.5214ZM81.2616 22.238C80.6891 22.238 80.1783 22.388 79.7303 22.6866C79.2949 22.9853 78.9465 23.3898 78.6852 23.8999C78.4363 24.4101 78.3115 24.9887 78.3115 25.6357C78.3115 26.2703 78.4363 26.8489 78.6852 27.3715C78.9465 27.8817 79.2949 28.2861 79.7303 28.5848C80.1783 28.8834 80.6891 29.0334 81.2616 29.0334C81.8462 29.0333 82.3622 28.8833 82.81 28.5848C83.258 28.2861 83.6073 27.8817 83.8562 27.3715C84.105 26.8489 84.2289 26.2702 84.2289 25.6357C84.2289 24.9887 84.105 24.41 83.8562 23.8999C83.6073 23.3897 83.258 22.9853 82.81 22.6866C82.3622 22.3881 81.8462 22.2381 81.2616 22.238Z" fill="white"/>
<path fill-rule="evenodd" clip-rule="evenodd" d="M110.293 20.5214C110.902 20.5215 111.481 20.6453 112.028 20.8941C112.576 21.1305 113.061 21.4673 113.484 21.9028C113.919 22.3259 114.262 22.8299 114.511 23.4148C114.759 23.9871 114.89 24.6152 114.902 25.2995C114.89 25.5484 114.79 25.7534 114.604 25.9152C114.417 26.077 114.199 26.1583 113.951 26.1583H107.467C107.523 26.6284 107.654 27.0515 107.865 27.4272C108.151 27.9374 108.537 28.336 109.023 28.6223C109.508 28.896 110.043 29.0334 110.628 29.0334C111.088 29.0334 111.468 28.9899 111.767 28.9028C112.066 28.8032 112.314 28.6842 112.513 28.5473C112.713 28.4105 112.887 28.2798 113.036 28.1554C113.223 28.0434 113.409 27.9873 113.596 27.9873C113.82 27.9873 114.007 28.0686 114.156 28.2303C114.305 28.3797 114.38 28.5606 114.38 28.7721C114.38 29.0457 114.243 29.2947 113.97 29.5185C113.634 29.8421 113.166 30.1284 112.569 30.3773C111.985 30.626 111.369 30.7499 110.722 30.75C109.689 30.75 108.792 30.5391 108.033 30.116C107.274 29.6805 106.683 29.0893 106.26 28.3427C105.849 27.5837 105.644 26.7186 105.644 25.7481C105.644 24.6531 105.862 23.7194 106.297 22.9479C106.745 22.164 107.324 21.566 108.033 21.1554C108.742 20.7323 109.496 20.5214 110.293 20.5214ZM110.293 22.2572C109.919 22.2572 109.558 22.3192 109.21 22.4436C108.874 22.5556 108.568 22.7423 108.294 23.0036C108.033 23.2649 107.822 23.6134 107.66 24.0488C107.604 24.2079 107.559 24.3823 107.524 24.5713H112.905V24.4407C112.88 24.0053 112.737 23.6259 112.476 23.3024C112.215 22.9664 111.891 22.711 111.506 22.5367C111.12 22.3501 110.716 22.2573 110.293 22.2572Z" fill="white"/>
<path fill-rule="evenodd" clip-rule="evenodd" d="M119.942 20.5214C120.477 20.5214 120.968 20.6085 121.416 20.7827C121.877 20.9569 122.275 21.1804 122.611 21.4541C122.79 21.5999 122.944 21.7526 123.077 21.9089V21.5473C123.077 21.2863 123.165 21.0624 123.339 20.8759C123.525 20.6892 123.75 20.5953 124.011 20.5953C124.285 20.5953 124.509 20.6892 124.683 20.8759C124.857 21.05 124.945 21.2739 124.945 21.5473V29.6117C124.945 29.8854 124.858 30.1157 124.683 30.3024C124.509 30.4766 124.285 30.5637 124.011 30.5637C123.75 30.5637 123.525 30.4766 123.339 30.3024C123.164 30.1157 123.077 29.8854 123.077 29.6117V29.2289C122.916 29.4471 122.712 29.6628 122.462 29.873C122.15 30.1218 121.784 30.3338 121.361 30.508C120.938 30.6697 120.483 30.75 119.998 30.75C119.139 30.75 118.368 30.5322 117.683 30.0968C116.999 29.6488 116.457 29.0393 116.059 28.2678C115.661 27.4963 115.462 26.6188 115.462 25.6357C115.462 24.6278 115.661 23.7444 116.059 22.9854C116.457 22.2139 116.992 21.6102 117.664 21.1746C118.349 20.7391 119.108 20.5214 119.942 20.5214ZM120.203 22.238C119.631 22.238 119.12 22.388 118.672 22.6866C118.237 22.9853 117.888 23.3898 117.627 23.8999C117.378 24.41 117.254 24.9887 117.254 25.6357C117.254 26.2703 117.378 26.8489 117.627 27.3715C117.888 27.8816 118.237 28.2861 118.672 28.5848C119.12 28.8834 119.631 29.0334 120.203 29.0334C120.788 29.0334 121.305 28.8834 121.753 28.5848C122.2 28.2861 122.549 27.8816 122.798 27.3715C123.047 26.8489 123.171 26.2703 123.171 25.6357C123.171 24.9887 123.047 24.4101 122.798 23.8999C122.549 23.3898 122.2 22.9853 121.753 22.6866C121.305 22.388 120.788 22.238 120.203 22.238Z" fill="white"/>
<path d="M87.503 20.6521C87.6896 20.6521 87.8639 20.7014 88.0256 20.8009C88.1996 20.9004 88.3236 21.0497 88.3983 21.2486L91.1863 27.6966L93.943 21.2678C94.1172 20.8572 94.3969 20.6579 94.7826 20.6703C95.0003 20.6703 95.1854 20.7317 95.3365 20.8556L95.4601 20.9711C95.5934 21.1125 95.6605 21.2922 95.6606 21.5098C95.6606 21.5845 95.648 21.6659 95.6231 21.7529C95.5983 21.8274 95.5672 21.9022 95.53 21.9767L91.9824 29.9661C91.8206 30.3394 91.5535 30.5387 91.1803 30.5637C90.9936 30.5885 90.8069 30.5508 90.6202 30.4512C90.4461 30.3392 90.3086 30.1777 90.2091 29.9661L86.6817 21.9767C86.6569 21.927 86.6316 21.865 86.6068 21.7904C86.5819 21.7033 86.5693 21.6036 86.5693 21.4916C86.5693 21.305 86.6506 21.1182 86.8124 20.9316C86.9866 20.745 87.2169 20.6521 87.503 20.6521Z" fill="white"/>
<path d="M62.7367 16.75C63.0105 16.75 63.2349 16.8439 63.4091 17.0305C63.5832 17.2047 63.6704 17.4284 63.6704 17.702V25.1486L68.1315 21.0065C68.3306 20.8075 68.5609 20.7078 68.8222 20.7078C69.0586 20.7078 69.2637 20.8075 69.4379 21.0065C69.6122 21.2056 69.7002 21.4049 69.7002 21.604C69.7001 21.8528 69.5811 22.0833 69.3448 22.2947L66.1861 25.1192L69.7002 28.921C69.8991 29.1324 69.9979 29.3689 69.998 29.6299C69.998 29.9036 69.8866 30.1282 69.6628 30.3024C69.4512 30.4642 69.2451 30.5454 69.046 30.5454C68.7848 30.5453 68.5611 30.4389 68.3746 30.2274L64.75 26.4044L63.6704 27.3705V29.6117C63.6704 29.8854 63.5834 30.1157 63.4091 30.3024C63.2349 30.4766 63.0105 30.5637 62.7367 30.5637C62.4756 30.5636 62.2518 30.4764 62.0652 30.3024C61.891 30.1157 61.804 29.8855 61.804 29.6117V17.702C61.804 17.4284 61.8911 17.2047 62.0652 17.0305C62.2518 16.844 62.4755 16.7501 62.7367 16.75Z" fill="white"/>
<path d="M72.7729 18.4301C73.0465 18.4302 73.2701 18.524 73.4443 18.7106C73.6185 18.8848 73.7055 19.1084 73.7056 19.3821V20.8566H75.1994C75.4481 20.8567 75.6534 20.9439 75.8151 21.1179C75.9893 21.2797 76.0764 21.4858 76.0764 21.7347C76.0763 21.9709 75.9891 22.1695 75.8151 22.3312C75.6534 22.4929 75.4482 22.5742 75.1994 22.5742H73.7056V28.044C73.7056 28.2678 73.7434 28.448 73.818 28.5848C73.8927 28.7217 73.9923 28.8155 74.1168 28.8653C74.2534 28.915 74.3902 28.9392 74.5269 28.9392C74.6638 28.9392 74.7828 28.9151 74.8824 28.8653C74.9943 28.8156 75.1251 28.7904 75.2743 28.7904C75.4235 28.7905 75.5601 28.8592 75.6845 28.9959C75.8089 29.1328 75.8708 29.3196 75.8708 29.556C75.8707 29.8545 75.7091 30.0975 75.3857 30.2841C75.0623 30.4707 74.7138 30.5637 74.3406 30.5637C74.1291 30.5637 73.8803 30.5453 73.5942 30.508C73.308 30.4706 73.0274 30.3768 72.7536 30.2274C72.4925 30.0781 72.2745 29.8419 72.1004 29.5185C71.9262 29.1825 71.8391 28.7152 71.8391 28.1179V22.5742H70.8122C70.5635 22.5741 70.3524 22.4929 70.1782 22.3312C70.0165 22.157 69.9352 21.9518 69.9352 21.7154C69.9352 21.4666 70.0165 21.2614 70.1782 21.0997C70.3523 20.9381 70.5636 20.8567 70.8122 20.8566H71.8391V19.3821C71.8392 19.1086 71.9264 18.8848 72.1004 18.7106C72.2871 18.524 72.5115 18.4301 72.7729 18.4301Z" fill="white"/>
<path d="M97.3731 16.75C97.6344 16.75 97.8521 16.8439 98.0263 17.0305C98.2129 17.2047 98.3068 17.4284 98.3069 17.702V22.2876C98.3368 22.2405 98.367 22.1923 98.4 22.1448C98.6116 21.8586 98.867 21.5974 99.1657 21.361C99.4766 21.1247 99.8185 20.9378 100.192 20.8009C100.565 20.6516 100.964 20.5771 101.387 20.5771C102.245 20.5771 102.911 20.7639 103.384 21.1372C103.857 21.498 104.186 21.9895 104.373 22.6117C104.572 23.2338 104.672 23.918 104.672 24.6645V29.6117C104.672 29.8854 104.579 30.1157 104.392 30.3024C104.218 30.4765 104 30.5636 103.739 30.5637C103.465 30.5637 103.241 30.4766 103.067 30.3024C102.892 30.1157 102.805 29.8855 102.805 29.6117V24.6645C102.805 24.2292 102.743 23.8312 102.619 23.4705C102.507 23.1096 102.301 22.8232 102.002 22.6117C101.716 22.4002 101.312 22.2947 100.789 22.2947C100.304 22.2947 99.8683 22.4002 99.4826 22.6117C99.1093 22.8232 98.8172 23.1096 98.6056 23.4705C98.4066 23.8312 98.3069 24.2291 98.3069 24.6645V29.6117C98.3069 29.8855 98.213 30.1157 98.0263 30.3024C97.8521 30.4765 97.6344 30.5637 97.3731 30.5637C97.0996 30.5636 96.8758 30.4764 96.7017 30.3024C96.5275 30.1157 96.4404 29.8855 96.4404 29.6117V17.702C96.4405 17.4284 96.5275 17.2047 96.7017 17.0305C96.8758 16.8439 97.0995 16.7501 97.3731 16.75Z" fill="white"/>
<path d="M127.54 16.75C127.814 16.75 128.032 16.8439 128.194 17.0305C128.368 17.2047 128.456 17.4284 128.456 17.702V29.6117C128.456 29.8855 128.362 30.1157 128.175 30.3024C128.001 30.4765 127.783 30.5636 127.522 30.5637C127.261 30.5637 127.036 30.4766 126.85 30.3024C126.676 30.1157 126.588 29.8854 126.588 29.6117V17.702C126.588 17.4284 126.682 17.2047 126.869 17.0305C127.056 16.8439 127.279 16.7501 127.54 16.75Z" fill="white"/>
<path d="M131.888 18.4301C132.162 18.4301 132.386 18.524 132.56 18.7106C132.734 18.8848 132.822 19.1085 132.822 19.3821V20.8566H134.315C134.563 20.8566 134.77 20.9437 134.931 21.1179C135.106 21.2797 135.193 21.4858 135.193 21.7347C135.192 21.9708 135.105 22.1695 134.931 22.3312C134.77 22.4929 134.563 22.5742 134.315 22.5742H132.822V28.044C132.822 28.2676 132.859 28.448 132.933 28.5848C133.008 28.7216 133.108 28.8155 133.232 28.8653C133.369 28.9151 133.506 28.9392 133.643 28.9392C133.78 28.9392 133.898 28.915 133.998 28.8653C134.11 28.8155 134.24 28.7904 134.389 28.7904C134.539 28.7904 134.676 28.8591 134.801 28.9959C134.925 29.1328 134.987 29.3197 134.987 29.556C134.987 29.8545 134.825 30.0975 134.502 30.2841C134.178 30.4707 133.83 30.5636 133.457 30.5637C133.245 30.5637 132.996 30.5453 132.709 30.508C132.423 30.4706 132.143 30.3767 131.87 30.2274C131.609 30.0781 131.391 29.8419 131.217 29.5185C131.042 29.1825 130.955 28.7152 130.955 28.1179V22.5742H129.928C129.68 22.5742 129.468 22.4929 129.293 22.3312C129.132 22.157 129.051 21.9517 129.051 21.7154C129.051 21.4667 129.132 21.2614 129.293 21.0997C129.468 20.9379 129.68 20.8566 129.928 20.8566H130.955V19.3821C130.955 19.1084 131.042 18.8848 131.217 18.7106C131.403 18.5241 131.627 18.4302 131.888 18.4301Z" fill="white"/>
<path d="M137.073 16.75C137.334 16.7501 137.552 16.8439 137.726 17.0305C137.913 17.2046 138.006 17.4285 138.006 17.702V22.2876C138.036 22.2405 138.066 22.1923 138.099 22.1448C138.311 21.8586 138.566 21.5974 138.865 21.361C139.176 21.1245 139.518 20.9378 139.892 20.8009C140.265 20.6516 140.664 20.5771 141.087 20.5771C141.945 20.5772 142.611 20.7639 143.084 21.1372C143.557 21.498 143.887 21.9896 144.073 22.6117C144.272 23.2337 144.372 23.9181 144.372 24.6645V29.6117C144.372 29.8855 144.278 30.1157 144.091 30.3024C143.917 30.4765 143.7 30.5636 143.438 30.5637C143.164 30.5637 142.94 30.4766 142.766 30.3024C142.592 30.1157 142.505 29.8854 142.504 29.6117V24.6645C142.504 24.2292 142.443 23.8312 142.318 23.4705C142.206 23.1097 142.001 22.8232 141.702 22.6117C141.416 22.4002 141.012 22.2947 140.489 22.2947C140.004 22.2947 139.567 22.4001 139.182 22.6117C138.809 22.8232 138.516 23.1097 138.305 23.4705C138.106 23.8312 138.006 24.2292 138.006 24.6645V29.6117C138.006 29.8854 137.913 30.1157 137.726 30.3024C137.552 30.4765 137.334 30.5636 137.073 30.5637C136.799 30.5637 136.575 30.4766 136.401 30.3024C136.227 30.1157 136.139 29.8854 136.139 29.6117V17.702C136.14 17.4284 136.227 17.2047 136.401 17.0305C136.575 16.8439 136.799 16.75 137.073 16.75Z" fill="white"/>
<defs>
<filter id="filter0_dd_13333_2477" x="0" y="0" width="65.5" height="71.5" filterUnits="userSpaceOnUse" color-interpolation-filters="sRGB">
<feFlood flood-opacity="0" result="BackgroundImageFix"/>
<feColorMatrix in="SourceAlpha" type="matrix" values="0 0 0 0 0 0 0 0 0 0 0 0 0 0 0 0 0 0 127 0" result="hardAlpha"/>
<feMorphology radius="6" operator="erode" in="SourceAlpha" result="effect1_dropShadow_13333_2477"/>
<feOffset dy="12"/>
<feGaussianBlur stdDeviation="14"/>
<feColorMatrix type="matrix" values="0 0 0 0 0 0 0 0 0 0 0 0 0 0 0 0 0 0 0.08 0"/>
<feBlend mode="normal" in2="BackgroundImageFix" result="effect1_dropShadow_13333_2477"/>
<feColorMatrix in="SourceAlpha" type="matrix" values="0 0 0 0 0 0 0 0 0 0 0 0 0 0 0 0 0 0 127 0" result="hardAlpha"/>
<feMorphology radius="2" operator="erode" in="SourceAlpha" result="effect2_dropShadow_13333_2477"/>
<feOffset dy="2"/>
<feGaussianBlur stdDeviation="3"/>
<feColorMatrix type="matrix" values="0 0 0 0 0 0 0 0 0 0 0 0 0 0 0 0 0 0 0.05 0"/>
<feBlend mode="normal" in2="effect1_dropShadow_13333_2477" result="effect2_dropShadow_13333_2477"/>
<feBlend mode="normal" in="SourceGraphic" in2="effect2_dropShadow_13333_2477" result="shape"/>
</filter>
</defs>
</svg>
