<svg width="91" height="33" viewBox="0 0 91 33" fill="none" xmlns="http://www.w3.org/2000/svg">
<g filter="url(#filter0_d_13421_7121)">
<path d="M13.2988 17.75C13.5059 17.3913 13.9646 17.2686 14.3232 17.4756C14.682 17.6827 14.8048 18.1413 14.5977 18.5C14.3344 18.9559 13.9559 19.3344 13.5 19.5977C13.0439 19.861 12.5266 20 12 20C11.4734 20 10.9561 19.861 10.5 19.5977C10.0441 19.3344 9.66561 18.9559 9.40235 18.5C9.19524 18.1413 9.31804 17.6827 9.67676 17.4756C10.0355 17.2686 10.4941 17.3913 10.7012 17.75C10.8328 17.978 11.022 18.1672 11.25 18.2988C11.478 18.4305 11.7367 18.5 12 18.5C12.2633 18.5 12.522 18.4305 12.75 18.2988C12.978 18.1672 13.1672 17.978 13.2988 17.75Z" fill="url(#paint0_linear_13421_7121)"/>
<path fill-rule="evenodd" clip-rule="evenodd" d="M16 2.25C16.8864 2.25 17.7641 2.42449 18.583 2.76367C19.402 3.10289 20.1466 3.59977 20.7734 4.22656C21.4002 4.85336 21.8971 5.59805 22.2363 6.41699C22.5755 7.2359 22.75 8.11363 22.75 9V11.6504C24.9305 13.0612 26.4394 15.4152 26.708 18.1426C26.751 18.5796 26.75 19.0893 26.75 20C26.75 20.9107 26.751 21.4204 26.708 21.8574C26.2988 26.0117 23.0117 29.2988 18.8574 29.708C18.4204 29.751 17.9107 29.75 17 29.75H15C14.2837 29.75 13.8155 29.7492 13.4355 29.7285C13.4145 29.7305 13.3932 29.7337 13.3721 29.7354L13.3711 29.7236C13.2919 29.7187 13.2161 29.7152 13.1426 29.708C8.98828 29.2988 5.70116 26.0117 5.29199 21.8574C5.24897 21.4204 5.25 20.9107 5.25 20C5.25 19.0893 5.24897 18.5796 5.29199 18.1426C5.56062 15.4152 7.06947 13.0612 9.25 11.6504V9C9.25 8.11363 9.42449 7.2359 9.76367 6.41699C10.1029 5.59804 10.5998 4.85336 11.2266 4.22656C11.8534 3.59977 12.598 3.10289 13.417 2.76367C14.2359 2.42449 15.1136 2.25 16 2.25ZM17.75 12.9785C17.75 14.1249 17.751 14.6281 17.8193 15.1162C17.8815 15.5604 17.9849 15.9988 18.1279 16.4238C18.2851 16.891 18.5088 17.3418 19.0215 18.3672L20.042 20.4072C20.1291 20.5814 20.2236 20.7629 20.2734 20.9385C20.4946 21.7186 20.1504 22.5491 19.4424 22.9443C19.283 23.0332 19.0879 23.0947 18.9033 23.1562L18.7451 23.209C18.6014 23.2569 18.561 23.2703 18.5293 23.2832C18.0851 23.4637 17.7827 23.8828 17.752 24.3613C17.7498 24.3954 17.75 24.4382 17.75 24.5918C17.75 24.9539 17.7506 25.1795 17.7354 25.373C17.6478 26.4843 17.1804 27.4859 16.4629 28.25H17C17.9465 28.25 18.3657 28.2488 18.7109 28.2148C22.1528 27.8757 24.8757 25.1528 25.2148 21.7109C25.2488 21.3657 25.25 20.9465 25.25 20C25.25 19.0535 25.2488 18.6343 25.2148 18.2891C24.8757 14.8472 22.1528 12.1243 18.7109 11.7852C18.4742 11.7618 18.2026 11.7556 17.75 11.7529V12.9785ZM15 11.75C14.0535 11.75 13.6343 11.7512 13.2891 11.7852C9.8472 12.1243 7.12431 14.8472 6.78516 18.2891C6.75116 18.6343 6.75 19.0535 6.75 20C6.75 20.9465 6.75116 21.3657 6.78516 21.7109C7.12431 25.1528 9.8472 27.8757 13.2891 28.2148C13.3239 28.2183 13.3597 28.2189 13.3965 28.2217C14.9228 28.0345 16.1176 26.8009 16.2393 25.2549C16.2487 25.1351 16.25 24.9828 16.25 24.5918C16.25 24.4597 16.2489 24.3593 16.2549 24.2656C16.3225 23.2127 16.9873 22.2907 17.9648 21.8936C18.0518 21.8582 18.1466 21.8274 18.2705 21.7861L18.4297 21.7324C18.5428 21.6947 18.6119 21.6722 18.6631 21.6533C18.6915 21.6428 18.7064 21.6362 18.7119 21.6338C18.8127 21.5772 18.8616 21.4589 18.8301 21.3477C18.8278 21.3418 18.8219 21.3274 18.8096 21.3008C18.7867 21.2511 18.7539 21.1855 18.7002 21.0781L17.6797 19.0381C17.1847 18.0482 16.9042 17.4903 16.7061 16.9014C16.5335 16.3885 16.409 15.8601 16.334 15.3242C16.2479 14.7089 16.25 14.0851 16.25 12.9785V11.75H15ZM16 3.75C15.3107 3.75 14.6281 3.88567 13.9912 4.14941C13.3543 4.41325 12.7756 4.80058 12.2881 5.28809C11.8006 5.77559 11.4133 6.35425 11.1494 6.99121C10.8857 7.62807 10.75 8.31068 10.75 9V10.876C11.5013 10.5754 12.3041 10.3746 13.1426 10.292C13.5796 10.249 14.0893 10.25 15 10.25H17C17.9107 10.25 18.4204 10.249 18.8574 10.292C19.6959 10.3746 20.4987 10.5754 21.25 10.876V9C21.25 8.31068 21.1143 7.62808 20.8506 6.99121C20.5868 6.35425 20.1994 5.77559 19.7119 5.28809C19.2244 4.80058 18.6457 4.41325 18.0088 4.14941C17.3719 3.88567 16.6893 3.75 16 3.75Z" fill="url(#paint1_linear_13421_7121)"/>
</g>
<path fill-rule="evenodd" clip-rule="evenodd" d="M51.8752 12.7704C52.4103 12.7704 52.9023 12.8575 53.3503 13.0317C53.8107 13.2059 54.209 13.4301 54.545 13.7039C54.7235 13.8493 54.8786 14.0006 55.0114 14.1566V13.7973C55.0114 13.536 55.0985 13.3118 55.2727 13.1251C55.4593 12.9384 55.6835 12.8448 55.9449 12.8448C56.2187 12.8448 56.4429 12.9384 56.6171 13.1251C56.7913 13.2993 56.8784 13.5236 56.8784 13.7973V21.8614C56.8783 22.1351 56.7912 22.3653 56.6171 22.5519C56.4429 22.7261 56.2187 22.8132 55.9449 22.8132C55.6835 22.8131 55.4593 22.7261 55.2727 22.5519C55.0986 22.3653 55.0115 22.135 55.0114 21.8614V21.4794C54.8498 21.6974 54.6454 21.9127 54.3954 22.1227C54.0843 22.3715 53.7171 22.5828 53.2941 22.7569C52.871 22.9187 52.4167 23 51.9314 23C51.0729 23 50.3014 22.7822 49.6171 22.3468C48.9326 21.8988 48.3914 21.2886 47.9932 20.517C47.5949 19.7455 47.3954 18.8683 47.3954 17.8852C47.3954 16.8772 47.5949 15.9935 47.9932 15.2344C48.3914 14.4629 48.9261 13.8591 49.5981 13.4236C50.2824 12.9881 51.0416 12.7705 51.8752 12.7704ZM52.1373 14.4877C51.5648 14.4877 51.054 14.6372 50.606 14.9359C50.1706 15.2345 49.8222 15.6388 49.5609 16.1489C49.312 16.6591 49.1879 17.2381 49.1879 17.8852C49.1879 18.5198 49.312 19.0989 49.5609 19.6215C49.8222 20.1316 50.1706 20.5359 50.606 20.8345C51.054 21.1332 51.5648 21.2827 52.1373 21.2827C52.7219 21.2826 53.2381 21.133 53.686 20.8345C54.1339 20.5359 54.483 20.1317 54.7319 19.6215C54.9808 19.0989 55.1048 18.5198 55.1048 17.8852C55.1048 17.2381 54.9808 16.6591 54.7319 16.1489C54.483 15.6387 54.134 15.2345 53.686 14.9359C53.2381 14.6373 52.7219 14.4878 52.1373 14.4877Z" fill="#134E4A"/>
<path fill-rule="evenodd" clip-rule="evenodd" d="M69.9107 9C70.1844 9.00002 70.4087 9.08708 70.5829 9.26128C70.757 9.43546 70.8442 9.66565 70.8442 9.95171V21.8614C70.8441 22.135 70.757 22.3653 70.5829 22.5519C70.4087 22.7261 70.1844 22.8131 69.9107 22.8132C69.6494 22.8132 69.4252 22.7261 69.2385 22.5519C69.0644 22.3653 68.9773 22.1351 68.9772 21.8614V21.4604C68.8156 21.6785 68.6113 21.8937 68.3612 22.1037C68.0501 22.3651 67.683 22.5827 67.2599 22.7569C66.8368 22.9187 66.3826 23 65.8972 23C65.0387 23 64.2672 22.7822 63.5829 22.3468C62.8985 21.8988 62.3572 21.295 61.959 20.536C61.5608 19.7645 61.3612 18.8807 61.3612 17.8852C61.3612 16.8897 61.5608 16.0125 61.959 15.2534C62.3572 14.4818 62.8919 13.8782 63.5639 13.4426C64.2483 12.9946 65.0074 12.7704 65.841 12.7704C66.3636 12.7704 66.8491 12.8575 67.2971 13.0317C67.7575 13.2059 68.1559 13.4301 68.4919 13.7039C68.6762 13.8541 68.8378 14.0103 68.9772 14.1718V9.95171C68.9772 9.67798 69.0643 9.45371 69.2385 9.27951C69.4251 9.09291 69.6494 9 69.9107 9ZM66.1023 14.4877C65.53 14.4878 65.0198 14.6373 64.5718 14.9359C64.1364 15.2345 63.788 15.6388 63.5267 16.1489C63.2778 16.6591 63.153 17.2381 63.153 17.8852C63.153 18.5323 63.2778 19.1113 63.5267 19.6215C63.788 20.1316 64.1364 20.5359 64.5718 20.8345C65.0198 21.1331 65.53 21.2826 66.1023 21.2827C66.6996 21.2827 67.2163 21.1331 67.6518 20.8345C68.0997 20.5359 68.4481 20.1315 68.6969 19.6215C68.9458 19.1113 69.0706 18.5323 69.0706 17.8852C69.0706 17.2381 68.9458 16.6591 68.6969 16.1489C68.4481 15.6388 68.0997 15.2345 67.6518 14.9359C67.2038 14.6372 66.6872 14.4877 66.1023 14.4877Z" fill="#134E4A"/>
<path fill-rule="evenodd" clip-rule="evenodd" d="M76.4831 12.7704C77.0928 12.7704 77.6719 12.8952 78.2194 13.1441C78.7668 13.3805 79.2517 13.7166 79.6747 14.152C80.1102 14.5751 80.4527 15.0788 80.7016 15.6635C80.9505 16.236 81.0811 16.865 81.0935 17.5495C81.081 17.7982 80.9816 18.0038 80.795 18.1655C80.6084 18.3271 80.3906 18.4077 80.1418 18.4078H73.6575C73.7131 18.8781 73.8455 19.3012 74.0563 19.677C74.3425 20.1872 74.7285 20.5855 75.2139 20.8717C75.6991 21.1454 76.234 21.2826 76.8188 21.2827C77.279 21.2827 77.6587 21.2391 77.9574 21.152C78.2559 21.0525 78.5049 20.9341 78.704 20.7973C78.9031 20.6604 79.078 20.5298 79.2273 20.4054C79.4139 20.2934 79.6005 20.2375 79.7871 20.2375C80.011 20.2375 80.1976 20.3181 80.3469 20.4798C80.4962 20.6292 80.571 20.8098 80.571 21.0214C80.5709 21.2951 80.4337 21.5441 80.16 21.768C79.8241 22.0915 79.3574 22.3775 78.7602 22.6263C78.1753 22.8752 77.5593 23 76.9122 23C75.8794 23 74.9832 22.7881 74.2242 22.365C73.4652 21.9295 72.8745 21.3381 72.4514 20.5915C72.0408 19.8324 71.8354 18.9675 71.8354 17.9969C71.8354 16.9019 72.0531 15.9686 72.4886 15.1972C72.9365 14.4133 73.515 13.816 74.2242 13.4054C74.9335 12.9823 75.6866 12.7704 76.4831 12.7704ZM76.4831 14.5067C76.1099 14.5067 75.749 14.5685 75.4007 14.6928C75.0647 14.8048 74.7592 14.992 74.4855 15.2534C74.2242 15.5147 74.013 15.8631 73.8512 16.2985C73.795 16.4577 73.7496 16.6319 73.7145 16.8211H79.0967V16.6904C79.0718 16.2549 78.9281 15.8754 78.6668 15.5519C78.4055 15.2159 78.0818 14.9604 77.6961 14.7862C77.3104 14.5997 76.906 14.5067 76.4831 14.5067Z" fill="#134E4A"/>
<path d="M46.152 12.901C46.3884 12.901 46.5938 12.9947 46.768 13.1813C46.9547 13.3555 47.0483 13.5856 47.0483 13.8717C47.0483 13.934 47.0417 13.9964 47.0293 14.0586C47.0169 14.1207 46.9987 14.1767 46.9738 14.2265L44.1179 22.2161C44.0433 22.4276 43.9126 22.5895 43.726 22.7015C43.5394 22.801 43.3463 22.838 43.1472 22.8132C42.7865 22.7883 42.5186 22.5893 42.3444 22.2161L40.4645 17.2252L38.7229 22.2161C38.5486 22.5893 38.2808 22.7883 37.92 22.8132C37.7336 22.8379 37.5409 22.8008 37.342 22.7015C37.1554 22.5895 37.024 22.4276 36.9493 22.2161L34.0752 14.2265C34.0254 14.1145 34 13.9962 34 13.8717C34 13.6104 34.0813 13.3862 34.2431 13.1995C34.4172 13.0006 34.6474 12.9011 34.9335 12.901C35.1326 12.901 35.3067 12.9512 35.4561 13.0507C35.6178 13.1502 35.7303 13.2997 35.7925 13.4988L37.9671 19.6337L39.6936 15.1037C39.8554 14.718 40.142 14.525 40.5526 14.525C40.7765 14.525 40.9508 14.5751 41.0752 14.6746C41.1995 14.7741 41.2991 14.9172 41.3737 15.1037L43.0994 19.5653L45.2565 13.4988C45.3809 13.1007 45.6793 12.9011 46.152 12.901Z" fill="#134E4A"/>
<path d="M59.4745 9C59.7481 9 59.966 9.09305 60.1277 9.27951C60.3019 9.45371 60.389 9.67798 60.389 9.95171V21.8614C60.3889 22.1351 60.296 22.3653 60.1095 22.5519C59.9353 22.726 59.7175 22.8131 59.4563 22.8132C59.195 22.8132 58.9707 22.726 58.7841 22.5519C58.6099 22.3653 58.5228 22.1351 58.5228 21.8614V9.95171C58.5228 9.678 58.6157 9.45371 58.8023 9.27951C58.9889 9.09288 59.2132 9.00003 59.4745 9Z" fill="#134E4A"/>
<path d="M87.1426 12.7704C88.0259 12.7704 88.7104 12.957 89.1956 13.3302C89.681 13.6911 90.0169 14.183 90.2036 14.8052C90.4026 15.4149 90.502 16.0993 90.5021 16.8583V21.8614C90.502 22.135 90.4091 22.3653 90.2225 22.5519C90.0483 22.7261 89.8299 22.8132 89.5686 22.8132C89.295 22.8131 89.0713 22.7259 88.8971 22.5519C88.723 22.3653 88.6359 22.1351 88.6358 21.8614V16.8773C88.6358 16.4293 88.5734 16.0309 88.449 15.6825C88.3246 15.3216 88.1069 15.035 87.7958 14.8235C87.4972 14.5995 87.074 14.4878 86.5266 14.4877C86.0164 14.4877 85.5679 14.5995 85.1822 14.8235C84.7964 15.035 84.4917 15.3216 84.2677 15.6825C84.0561 16.031 83.9502 16.4293 83.9502 16.8773V21.8614C83.9501 22.1351 83.8565 22.3653 83.6699 22.5519C83.4957 22.726 83.2779 22.8132 83.0167 22.8132C82.7431 22.8131 82.5194 22.7259 82.3453 22.5519C82.1711 22.3653 82.084 22.1351 82.084 21.8614V13.9462C82.084 13.6725 82.1711 13.4489 82.3453 13.2747C82.5194 13.0881 82.743 12.9945 83.0167 12.9945C83.278 12.9945 83.4957 13.0881 83.6699 13.2747C83.8565 13.4489 83.9501 13.6725 83.9502 13.9462V14.5128C83.9857 14.4612 84.0227 14.4088 84.0626 14.3571C84.2865 14.071 84.5537 13.8096 84.8647 13.5732C85.1758 13.3244 85.5248 13.1314 85.9106 12.9945C86.2963 12.8452 86.7071 12.7704 87.1426 12.7704Z" fill="#134E4A"/>
<defs>
<filter id="filter0_d_13421_7121" x="3.25" y="1.25" width="25.5" height="31.5" filterUnits="userSpaceOnUse" color-interpolation-filters="sRGB">
<feFlood flood-opacity="0" result="BackgroundImageFix"/>
<feColorMatrix in="SourceAlpha" type="matrix" values="0 0 0 0 0 0 0 0 0 0 0 0 0 0 0 0 0 0 127 0" result="hardAlpha"/>
<feOffset dy="1"/>
<feGaussianBlur stdDeviation="1"/>
<feComposite in2="hardAlpha" operator="out"/>
<feColorMatrix type="matrix" values="0 0 0 0 0.0666667 0 0 0 0 0.368627 0 0 0 0 0.34902 0 0 0 0.1 0"/>
<feBlend mode="normal" in2="BackgroundImageFix" result="effect1_dropShadow_13421_7121"/>
<feBlend mode="normal" in="SourceGraphic" in2="effect1_dropShadow_13421_7121" result="shape"/>
</filter>
<linearGradient id="paint0_linear_13421_7121" x1="4.5" y1="2" x2="27" y2="30" gradientUnits="userSpaceOnUse">
<stop offset="0.5" stop-color="#115E59"/>
<stop offset="1" stop-color="#A78BFA"/>
</linearGradient>
<linearGradient id="paint1_linear_13421_7121" x1="4.5" y1="2" x2="27" y2="30" gradientUnits="userSpaceOnUse">
<stop offset="0.5" stop-color="#115E59"/>
<stop offset="1" stop-color="#A78BFA"/>
</linearGradient>
</defs>
</svg>
