<svg width="32" height="32" viewBox="0 0 32 32" fill="none" xmlns="http://www.w3.org/2000/svg">
<g clip-path="url(#clip0_13314_3413)">
<g filter="url(#filter0_d_13314_3413)">
<path fill-rule="evenodd" clip-rule="evenodd" d="M20.1426 2C21.2033 2.00012 22.2207 2.42183 22.9707 3.17188L28.8281 9.0293C29.5782 9.77934 29.9999 10.7967 30 11.8574V20.1426C29.9999 21.2033 29.5782 22.2207 28.8281 22.9707L22.9707 28.8281C22.2207 29.5782 21.2033 29.9999 20.1426 30H11.8574C10.7967 29.9999 9.77934 29.5782 9.0293 28.8281L3.17188 22.9707C2.42183 22.2207 2.00012 21.2033 2 20.1426V11.8574C2.00012 10.7967 2.42183 9.77934 3.17188 9.0293L9.0293 3.17188C9.77934 2.42183 10.7967 2.00012 11.8574 2H20.1426ZM14.1934 8C13.9915 8.00004 13.8042 8.10422 13.6973 8.27539C13.6261 8.38948 13.5956 8.52479 13.6123 8.6582L14.166 13.0488C14.2474 13.6964 13.6964 14.2474 13.0488 14.166L8.6582 13.6123C8.52479 13.5956 8.38948 13.6261 8.27539 13.6973C8.10422 13.8042 8.00004 13.9915 8 14.1934V17.8066C8.00004 18.0085 8.10421 18.1958 8.27539 18.3027C8.38948 18.3739 8.52479 18.4044 8.6582 18.3877L13.0488 17.834C13.6966 17.7523 14.2477 18.3033 14.166 18.9512L13.6123 23.3418C13.5956 23.4752 13.6261 23.6105 13.6973 23.7246C13.8042 23.8958 13.9915 24 14.1934 24H17.8066C18.0085 24 18.1958 23.8958 18.3027 23.7246C18.3739 23.6105 18.4044 23.4752 18.3877 23.3418L17.834 18.9512C17.7523 18.3033 18.3033 17.7523 18.9512 17.834L23.3418 18.3877C23.4752 18.4044 23.6105 18.3739 23.7246 18.3027C23.8958 18.1958 24 18.0085 24 17.8066V14.1934C24 13.9915 23.8958 13.8042 23.7246 13.6973C23.6105 13.6261 23.4752 13.5956 23.3418 13.6123L18.9512 14.166C18.3035 14.2476 17.7526 13.6965 17.834 13.0488L18.3877 8.6582C18.4044 8.52479 18.3739 8.38948 18.3027 8.27539C18.1958 8.10422 18.0085 8.00004 17.8066 8H14.1934Z" fill="url(#paint0_linear_13314_3413)"/>
<path d="M11.8574 2.125H20.1426C21.1701 2.12512 22.1552 2.53413 22.8818 3.26074L28.7393 9.11816C29.4659 9.84478 29.8749 10.8299 29.875 11.8574V20.1426L29.8701 20.335C29.8224 21.2925 29.4204 22.2007 28.7393 22.8818L22.8818 28.7393C22.1552 29.4659 21.1701 29.8749 20.1426 29.875H11.8574C10.8299 29.8749 9.84478 29.4659 9.11816 28.7393L3.26074 22.8818C2.53413 22.1552 2.12512 21.1701 2.125 20.1426V11.8574L2.12988 11.665C2.17758 10.7075 2.57961 9.7993 3.26074 9.11816L9.11816 3.26074C9.7993 2.57961 10.7075 2.17758 11.665 2.12988L11.8574 2.125ZM14.1025 7.88086C13.893 7.90792 13.7043 8.02729 13.5908 8.20898C13.5263 8.31243 13.4894 8.43074 13.4834 8.55176L13.4883 8.67383L14.042 13.0645C14.1087 13.5955 13.6893 14.0522 13.1699 14.0488L13.0645 14.042L8.67383 13.4883C8.51145 13.4679 8.34702 13.5047 8.20898 13.5908C8.00137 13.7205 7.87505 13.9483 7.875 14.1934V17.8066C7.87504 18.0517 8.00136 18.2795 8.20898 18.4092C8.31242 18.4737 8.43073 18.5106 8.55176 18.5166L8.67383 18.5117L13.0645 17.958C13.6313 17.8866 14.1134 18.3687 14.042 18.9355L13.4883 23.3262C13.4679 23.4886 13.5047 23.653 13.5908 23.791C13.7043 23.9727 13.893 24.0921 14.1025 24.1191L14.1934 24.125H17.8066C18.0517 24.125 18.2795 23.9986 18.4092 23.791C18.4737 23.6876 18.5106 23.5693 18.5166 23.4482L18.5117 23.3262L17.958 18.9355C17.8865 18.3687 18.3687 17.8865 18.9355 17.958L23.3262 18.5117C23.4886 18.5321 23.653 18.4953 23.791 18.4092C23.9986 18.2795 24.125 18.0517 24.125 17.8066V14.1934L24.1191 14.1025C24.0921 13.893 23.9727 13.7043 23.791 13.5908C23.6876 13.5263 23.5693 13.4894 23.4482 13.4834L23.3262 13.4883L18.9355 14.042C18.4044 14.1089 17.9477 13.6895 17.9512 13.1699L17.958 13.0645L18.5117 8.67383C18.5321 8.51144 18.4953 8.34702 18.4092 8.20898C18.2795 8.00136 18.0517 7.87505 17.8066 7.875H14.1934L14.1025 7.88086Z" stroke="white" stroke-opacity="0.3" stroke-width="0.25"/>
</g>
</g>
<defs>
<filter id="filter0_d_13314_3413" x="0" y="1" width="32" height="32" filterUnits="userSpaceOnUse" color-interpolation-filters="sRGB">
<feFlood flood-opacity="0" result="BackgroundImageFix"/>
<feColorMatrix in="SourceAlpha" type="matrix" values="0 0 0 0 0 0 0 0 0 0 0 0 0 0 0 0 0 0 127 0" result="hardAlpha"/>
<feOffset dy="1"/>
<feGaussianBlur stdDeviation="1"/>
<feColorMatrix type="matrix" values="0 0 0 0 0.0784314 0 0 0 0 0.721569 0 0 0 0 0.65098 0 0 0 0.25 0"/>
<feBlend mode="normal" in2="BackgroundImageFix" result="effect1_dropShadow_13314_3413"/>
<feBlend mode="normal" in="SourceGraphic" in2="effect1_dropShadow_13314_3413" result="shape"/>
</filter>
<linearGradient id="paint0_linear_13314_3413" x1="2.29167" y1="2" x2="30" y2="30" gradientUnits="userSpaceOnUse">
<stop offset="0.2" stop-color="#0D9488"/>
<stop offset="0.4" stop-color="#14B8A6"/>
<stop offset="1" stop-color="#5EEAD4"/>
</linearGradient>
<clipPath id="clip0_13314_3413">
<rect width="32" height="32" fill="white"/>
</clipPath>
</defs>
</svg>
