<svg width="128" height="33" viewBox="0 0 128 33" fill="none" xmlns="http://www.w3.org/2000/svg">
<g filter="url(#filter0_d_13333_2481)">
<path d="M13.2988 17.75C13.5059 17.3913 13.9646 17.2686 14.3232 17.4756C14.682 17.6827 14.8048 18.1413 14.5977 18.5C14.3344 18.9559 13.9559 19.3344 13.5 19.5977C13.0439 19.861 12.5266 20 12 20C11.4734 20 10.9561 19.861 10.5 19.5977C10.0441 19.3344 9.66561 18.9559 9.40235 18.5C9.19524 18.1413 9.31804 17.6827 9.67676 17.4756C10.0355 17.2686 10.4941 17.3913 10.7012 17.75C10.8328 17.978 11.022 18.1672 11.25 18.2988C11.478 18.4305 11.7367 18.5 12 18.5C12.2633 18.5 12.522 18.4305 12.75 18.2988C12.978 18.1672 13.1672 17.978 13.2988 17.75Z" fill="url(#paint0_linear_13333_2481)"/>
<path fill-rule="evenodd" clip-rule="evenodd" d="M16 2.25C16.8864 2.25 17.7641 2.42449 18.583 2.76367C19.402 3.10289 20.1466 3.59977 20.7734 4.22656C21.4002 4.85336 21.8971 5.59805 22.2363 6.41699C22.5755 7.2359 22.75 8.11363 22.75 9V11.6504C24.9305 13.0612 26.4394 15.4152 26.708 18.1426C26.751 18.5796 26.75 19.0893 26.75 20C26.75 20.9107 26.751 21.4204 26.708 21.8574C26.2988 26.0117 23.0117 29.2988 18.8574 29.708C18.4204 29.751 17.9107 29.75 17 29.75H15C14.2837 29.75 13.8155 29.7492 13.4355 29.7285C13.4145 29.7305 13.3932 29.7337 13.3721 29.7354L13.3711 29.7236C13.2919 29.7187 13.2161 29.7152 13.1426 29.708C8.98828 29.2988 5.70116 26.0117 5.29199 21.8574C5.24897 21.4204 5.25 20.9107 5.25 20C5.25 19.0893 5.24897 18.5796 5.29199 18.1426C5.56062 15.4152 7.06947 13.0612 9.25 11.6504V9C9.25 8.11363 9.42449 7.2359 9.76367 6.41699C10.1029 5.59804 10.5998 4.85336 11.2266 4.22656C11.8534 3.59977 12.598 3.10289 13.417 2.76367C14.2359 2.42449 15.1136 2.25 16 2.25ZM17.75 12.9785C17.75 14.1249 17.751 14.6281 17.8193 15.1162C17.8815 15.5604 17.9849 15.9988 18.1279 16.4238C18.2851 16.891 18.5088 17.3418 19.0215 18.3672L20.042 20.4072C20.1291 20.5814 20.2236 20.7629 20.2734 20.9385C20.4946 21.7186 20.1504 22.5491 19.4424 22.9443C19.283 23.0332 19.0879 23.0947 18.9033 23.1562L18.7451 23.209C18.6014 23.2569 18.561 23.2703 18.5293 23.2832C18.0851 23.4637 17.7827 23.8828 17.752 24.3613C17.7498 24.3954 17.75 24.4382 17.75 24.5918C17.75 24.9539 17.7506 25.1795 17.7354 25.373C17.6478 26.4843 17.1804 27.4859 16.4629 28.25H17C17.9465 28.25 18.3657 28.2488 18.7109 28.2148C22.1528 27.8757 24.8757 25.1528 25.2148 21.7109C25.2488 21.3657 25.25 20.9465 25.25 20C25.25 19.0535 25.2488 18.6343 25.2148 18.2891C24.8757 14.8472 22.1528 12.1243 18.7109 11.7852C18.4742 11.7618 18.2026 11.7556 17.75 11.7529V12.9785ZM15 11.75C14.0535 11.75 13.6343 11.7512 13.2891 11.7852C9.8472 12.1243 7.12431 14.8472 6.78516 18.2891C6.75116 18.6343 6.75 19.0535 6.75 20C6.75 20.9465 6.75116 21.3657 6.78516 21.7109C7.12431 25.1528 9.8472 27.8757 13.2891 28.2148C13.3239 28.2183 13.3597 28.2189 13.3965 28.2217C14.9228 28.0345 16.1176 26.8009 16.2393 25.2549C16.2487 25.1351 16.25 24.9828 16.25 24.5918C16.25 24.4597 16.2489 24.3593 16.2549 24.2656C16.3225 23.2127 16.9873 22.2907 17.9648 21.8936C18.0518 21.8582 18.1466 21.8274 18.2705 21.7861L18.4297 21.7324C18.5428 21.6947 18.6119 21.6722 18.6631 21.6533C18.6915 21.6428 18.7064 21.6362 18.7119 21.6338C18.8127 21.5772 18.8616 21.4589 18.8301 21.3477C18.8278 21.3418 18.8219 21.3274 18.8096 21.3008C18.7867 21.2511 18.7539 21.1855 18.7002 21.0781L17.6797 19.0381C17.1847 18.0482 16.9042 17.4903 16.7061 16.9014C16.5335 16.3885 16.409 15.8601 16.334 15.3242C16.2479 14.7089 16.25 14.0851 16.25 12.9785V11.75H15ZM16 3.75C15.3107 3.75 14.6281 3.88567 13.9912 4.14941C13.3543 4.41325 12.7756 4.80058 12.2881 5.28809C11.8006 5.77559 11.4133 6.35425 11.1494 6.99121C10.8857 7.62807 10.75 8.31068 10.75 9V10.876C11.5013 10.5754 12.3041 10.3746 13.1426 10.292C13.5796 10.249 14.0893 10.25 15 10.25H17C17.9107 10.25 18.4204 10.249 18.8574 10.292C19.6959 10.3746 20.4987 10.5754 21.25 10.876V9C21.25 8.31068 21.1143 7.62808 20.8506 6.99121C20.5868 6.35425 20.1994 5.77559 19.7119 5.28809C19.2244 4.80058 18.6457 4.41325 18.0088 4.14941C17.3719 3.88567 16.6893 3.75 16 3.75Z" fill="url(#paint1_linear_13333_2481)"/>
</g>
<path fill-rule="evenodd" clip-rule="evenodd" d="M38.9644 12.7714C39.8977 12.7714 40.7384 12.9949 41.4851 13.4429C42.2317 13.8784 42.8229 14.4821 43.2584 15.2536C43.6939 16.0126 43.9115 16.8961 43.9116 17.9039C43.9116 18.8995 43.6939 19.7837 43.2584 20.5553C42.8229 21.3142 42.2316 21.9113 41.4851 22.3468C40.7384 22.7823 39.8977 23 38.9644 23C38.0313 22.9999 37.1913 22.7823 36.4447 22.3468C35.6983 21.9113 35.1011 21.3141 34.6532 20.5553C34.2177 19.7837 34 18.8995 34 17.9039C34.0001 16.8961 34.2177 16.0126 34.6532 15.2536C35.1012 14.4822 35.6982 13.8784 36.4447 13.4429C37.1913 12.9949 38.0313 12.7715 38.9644 12.7714ZM38.9644 14.488C38.3922 14.4881 37.8695 14.6381 37.3967 14.9366C36.924 15.2228 36.5503 15.6206 36.2766 16.1306C36.0029 16.6283 35.8665 17.2197 35.8665 17.9039C35.8665 18.5634 36.0029 19.1488 36.2766 19.659C36.5504 20.1692 36.9238 20.5678 37.3967 20.854C37.8695 21.1402 38.3922 21.2833 38.9644 21.2834C39.5367 21.2834 40.0535 21.1401 40.5139 20.854C40.9867 20.5678 41.3602 20.1692 41.634 19.659C41.9077 19.1488 42.0451 18.5635 42.0451 17.9039C42.0451 17.2197 41.9077 16.6283 41.634 16.1306C41.3602 15.6206 40.9867 15.2228 40.5139 14.9366C40.0535 14.638 39.5368 14.488 38.9644 14.488Z" fill="#134E4A"/>
<path fill-rule="evenodd" clip-rule="evenodd" d="M64.2493 12.7714C64.7844 12.7714 65.2768 12.8585 65.7248 13.0327C66.185 13.2068 66.583 13.4305 66.9188 13.7041C67.0978 13.8499 67.2526 14.0025 67.3857 14.1589V13.7973C67.3858 13.5362 67.473 13.3124 67.647 13.1259C67.8337 12.9392 68.0581 12.8453 68.3194 12.8453C68.5931 12.8454 68.8167 12.9393 68.9909 13.1259C69.165 13.3 69.2521 13.5237 69.2522 13.7973V21.8617C69.2522 22.1355 69.1651 22.3657 68.9909 22.5524C68.8168 22.7264 68.593 22.8136 68.3194 22.8137C68.0581 22.8137 67.8337 22.7266 67.647 22.5524C67.4728 22.3657 67.3857 22.1354 67.3857 21.8617V21.4789C67.2241 21.6971 67.0202 21.9128 66.77 22.123C66.4589 22.3719 66.0912 22.5837 65.6681 22.758C65.2452 22.9196 64.7911 23 64.306 23C63.4473 23 62.6753 22.7823 61.9909 22.3468C61.3066 21.8989 60.7656 21.2891 60.3675 20.5178C59.9693 19.7463 59.77 18.8688 59.77 17.8857C59.77 16.8778 59.9693 15.9945 60.3675 15.2354C60.7657 14.4638 61.3007 13.8602 61.9727 13.4246C62.657 12.9892 63.4157 12.7715 64.2493 12.7714ZM64.5116 14.488C63.9391 14.488 63.4283 14.638 62.9803 14.9366C62.5449 15.2353 62.1965 15.6398 61.9352 16.1499C61.6863 16.6601 61.5615 17.2387 61.5615 17.8857C61.5615 18.5203 61.6863 19.0989 61.9352 19.6215C62.1965 20.1317 62.5449 20.5361 62.9803 20.8348C63.4283 21.1334 63.9391 21.2834 64.5116 21.2834C65.0962 21.2833 65.6122 21.1333 66.06 20.8348C66.508 20.5361 66.8573 20.1317 67.1062 19.6215C67.355 19.0989 67.4789 18.5202 67.4789 17.8857C67.4789 17.2387 67.355 16.66 67.1062 16.1499C66.8573 15.6397 66.508 15.2353 66.06 14.9366C65.6122 14.6381 65.0962 14.4881 64.5116 14.488Z" fill="#134E4A"/>
<path fill-rule="evenodd" clip-rule="evenodd" d="M93.5425 12.7714C94.1522 12.7715 94.7309 12.8953 95.2784 13.1441C95.8259 13.3805 96.3106 13.7173 96.7337 14.1528C97.1692 14.5759 97.5117 15.0799 97.7606 15.6648C98.0094 16.2371 98.14 16.8652 98.1525 17.5495C98.1401 17.7984 98.0404 18.0034 97.8537 18.1652C97.6671 18.327 97.4494 18.4083 97.2005 18.4083H90.717C90.7725 18.8784 90.9044 19.3015 91.115 19.6772C91.4012 20.1874 91.7873 20.586 92.2726 20.8723C92.7578 21.146 93.293 21.2834 93.8778 21.2834C94.3382 21.2834 94.7184 21.2399 95.0171 21.1528C95.3157 21.0532 95.5644 20.9342 95.7635 20.7973C95.9625 20.6605 96.1367 20.5298 96.286 20.4054C96.4727 20.2934 96.6594 20.2373 96.8461 20.2373C97.0701 20.2373 97.2568 20.3186 97.4061 20.4803C97.5554 20.6297 97.6299 20.8106 97.6299 21.0221C97.6298 21.2957 97.4933 21.5447 97.2198 21.7685C96.8838 22.0921 96.4165 22.3784 95.8192 22.6273C95.2345 22.876 94.6187 22.9999 93.9719 23C92.939 23 92.0422 22.7891 91.2831 22.366C90.5241 21.9305 89.9329 21.3393 89.5098 20.5927C89.0992 19.8337 88.8942 18.9686 88.8941 17.9981C88.8941 16.9031 89.1119 15.9694 89.5473 15.1979C89.9953 14.414 90.5739 13.816 91.2831 13.4054C91.9925 12.9823 92.7461 12.7714 93.5425 12.7714ZM93.5425 14.5072C93.1694 14.5072 92.8082 14.5692 92.4599 14.6936C92.1239 14.8056 91.8182 14.9923 91.5444 15.2536C91.2832 15.5149 91.0722 15.8634 90.9105 16.2988C90.8543 16.4579 90.8088 16.6323 90.7737 16.8213H96.1554V16.6907C96.1304 16.2553 95.9873 15.8759 95.726 15.5524C95.4647 15.2164 95.1415 14.961 94.7558 14.7867C94.3701 14.6001 93.9655 14.5073 93.5425 14.5072Z" fill="#134E4A"/>
<path fill-rule="evenodd" clip-rule="evenodd" d="M103.192 12.7714C103.727 12.7714 104.218 12.8585 104.666 13.0327C105.127 13.2069 105.525 13.4304 105.861 13.7041C106.04 13.8499 106.194 14.0026 106.327 14.1589V13.7973C106.327 13.5363 106.415 13.3124 106.589 13.1259C106.775 12.9392 107 12.8453 107.261 12.8453C107.535 12.8453 107.759 12.9392 107.933 13.1259C108.107 13.3 108.195 13.5239 108.195 13.7973V21.8617C108.195 22.1354 108.108 22.3657 107.933 22.5524C107.759 22.7266 107.535 22.8137 107.261 22.8137C107 22.8137 106.775 22.7266 106.589 22.5524C106.414 22.3657 106.327 22.1354 106.327 21.8617V21.4789C106.166 21.6971 105.962 21.9128 105.712 22.123C105.4 22.3718 105.034 22.5838 104.611 22.758C104.188 22.9197 103.733 23 103.248 23C102.389 23 101.618 22.7822 100.933 22.3468C100.249 21.8988 99.7073 21.2893 99.309 20.5178C98.9108 19.7463 98.7115 18.8688 98.7115 17.8857C98.7115 16.8778 98.9109 15.9944 99.309 15.2354C99.7072 14.4639 100.242 13.8602 100.914 13.4246C101.599 12.9891 102.358 12.7714 103.192 12.7714ZM103.453 14.488C102.881 14.488 102.37 14.638 101.922 14.9366C101.487 15.2353 101.138 15.6398 100.877 16.1499C100.628 16.66 100.504 17.2387 100.504 17.8857C100.504 18.5203 100.628 19.0989 100.877 19.6215C101.138 20.1316 101.487 20.5361 101.922 20.8348C102.37 21.1334 102.881 21.2834 103.453 21.2834C104.038 21.2834 104.555 21.1334 105.003 20.8348C105.45 20.5361 105.799 20.1316 106.048 19.6215C106.297 19.0989 106.421 18.5203 106.421 17.8857C106.421 17.2387 106.297 16.6601 106.048 16.1499C105.799 15.6398 105.45 15.2353 105.003 14.9366C104.555 14.638 104.038 14.488 103.453 14.488Z" fill="#134E4A"/>
<path d="M70.753 12.9021C70.9396 12.9021 71.1139 12.9514 71.2756 13.0509C71.4496 13.1504 71.5736 13.2997 71.6483 13.4986L74.4363 19.9466L77.193 13.5178C77.3672 13.1072 77.6469 12.9079 78.0326 12.9203C78.2503 12.9203 78.4354 12.9817 78.5865 13.1056L78.7101 13.2211C78.8434 13.3625 78.9105 13.5422 78.9106 13.7598C78.9106 13.8345 78.898 13.9159 78.8731 14.0029C78.8483 14.0774 78.8172 14.1522 78.78 14.2267L75.2324 22.2161C75.0706 22.5894 74.8035 22.7887 74.4303 22.8137C74.2436 22.8385 74.0569 22.8008 73.8702 22.7012C73.6961 22.5892 73.5586 22.4277 73.4591 22.2161L69.9317 14.2267C69.9069 14.177 69.8816 14.115 69.8568 14.0404C69.8319 13.9533 69.8193 13.8536 69.8193 13.7416C69.8193 13.555 69.9006 13.3682 70.0624 13.1816C70.2366 12.995 70.4669 12.9021 70.753 12.9021Z" fill="#134E4A"/>
<path d="M45.9867 9C46.2605 9 46.4849 9.09386 46.6591 9.28053C46.8332 9.45465 46.9204 9.67842 46.9204 9.95197V17.3986L51.3815 13.2565C51.5806 13.0575 51.8109 12.9578 52.0722 12.9578C52.3086 12.9578 52.5137 13.0575 52.6879 13.2565C52.8622 13.4556 52.9502 13.6549 52.9502 13.854C52.9501 14.1028 52.8311 14.3333 52.5948 14.5447L49.4361 17.3692L52.9502 21.171C53.1491 21.3824 53.2479 21.6189 53.248 21.8799C53.248 22.1536 53.1366 22.3782 52.9128 22.5524C52.7012 22.7142 52.4951 22.7954 52.296 22.7954C52.0348 22.7953 51.8111 22.6889 51.6246 22.4774L48 18.6544L46.9204 19.6205V21.8617C46.9204 22.1354 46.8334 22.3657 46.6591 22.5524C46.4849 22.7266 46.2605 22.8137 45.9867 22.8137C45.7256 22.8136 45.5018 22.7264 45.3152 22.5524C45.141 22.3657 45.054 22.1355 45.054 21.8617V9.95197C45.054 9.67836 45.1411 9.45467 45.3152 9.28053C45.5018 9.09395 45.7255 9.00009 45.9867 9Z" fill="#134E4A"/>
<path d="M56.0229 10.6801C56.2965 10.6802 56.5201 10.774 56.6943 10.9606C56.8685 11.1348 56.9555 11.3584 56.9556 11.6321V13.1066H58.4494C58.6981 13.1067 58.9034 13.1939 59.0651 13.3679C59.2393 13.5297 59.3264 13.7358 59.3264 13.9847C59.3263 14.2209 59.2391 14.4195 59.0651 14.5812C58.9034 14.7429 58.6982 14.8242 58.4494 14.8242H56.9556V20.294C56.9556 20.5178 56.9934 20.698 57.068 20.8348C57.1427 20.9717 57.2423 21.0655 57.3668 21.1153C57.5034 21.165 57.6402 21.1892 57.7769 21.1892C57.9138 21.1892 58.0328 21.1651 58.1324 21.1153C58.2443 21.0656 58.3751 21.0404 58.5243 21.0404C58.6735 21.0405 58.8101 21.1092 58.9345 21.2459C59.0589 21.3828 59.1208 21.5696 59.1208 21.806C59.1207 22.1045 58.9591 22.3475 58.6357 22.5341C58.3123 22.7207 57.9638 22.8137 57.5906 22.8137C57.3791 22.8137 57.1303 22.7953 56.8442 22.758C56.558 22.7206 56.2774 22.6268 56.0036 22.4774C55.7425 22.3281 55.5245 22.0919 55.3504 21.7685C55.1762 21.4325 55.0891 20.9652 55.0891 20.3679V14.8242H54.0622C53.8135 14.8241 53.6024 14.7429 53.4282 14.5812C53.2665 14.407 53.1852 14.2018 53.1852 13.9654C53.1852 13.7166 53.2665 13.5114 53.4282 13.3497C53.6023 13.1881 53.8136 13.1067 54.0622 13.1066H55.0891V11.6321C55.0892 11.3586 55.1764 11.1348 55.3504 10.9606C55.5371 10.774 55.7615 10.6801 56.0229 10.6801Z" fill="#134E4A"/>
<path d="M80.6231 9C80.8844 9 81.1021 9.09391 81.2763 9.28053C81.4629 9.45467 81.5568 9.67835 81.5569 9.95197V14.5376C81.5868 14.4905 81.617 14.4423 81.65 14.3948C81.8616 14.1086 82.117 13.8474 82.4157 13.611C82.7266 13.3747 83.0685 13.1878 83.4416 13.0509C83.8149 12.9016 84.2135 12.8271 84.6366 12.8271C85.4952 12.8271 86.1608 13.0139 86.6337 13.3872C87.1066 13.748 87.4365 14.2395 87.6231 14.8617C87.8222 15.4838 87.9218 16.168 87.9219 16.9145V21.8617C87.9219 22.1354 87.8289 22.3657 87.6424 22.5524C87.4682 22.7265 87.2503 22.8136 86.9892 22.8137C86.7154 22.8137 86.4909 22.7266 86.3167 22.5524C86.1425 22.3657 86.0554 22.1355 86.0554 21.8617V16.9145C86.0554 16.4792 85.9934 16.0812 85.8691 15.7205C85.7571 15.3596 85.551 15.0732 85.2523 14.8617C84.9661 14.6502 84.5616 14.5447 84.0391 14.5447C83.5539 14.5447 83.1183 14.6502 82.7326 14.8617C82.3593 15.0732 82.0672 15.3596 81.8556 15.7205C81.6566 16.0812 81.5569 16.4791 81.5569 16.9145V21.8617C81.5569 22.1355 81.463 22.3657 81.2763 22.5524C81.1021 22.7265 80.8844 22.8137 80.6231 22.8137C80.3496 22.8136 80.1258 22.7264 79.9517 22.5524C79.7775 22.3657 79.6904 22.1355 79.6904 21.8617V9.95197C79.6905 9.67835 79.7775 9.45467 79.9517 9.28053C80.1258 9.09395 80.3495 9.00005 80.6231 9Z" fill="#134E4A"/>
<path d="M110.79 9C111.064 9 111.282 9.09395 111.444 9.28053C111.618 9.45467 111.706 9.67835 111.706 9.95197V21.8617C111.706 22.1355 111.612 22.3657 111.425 22.5524C111.251 22.7265 111.033 22.8136 110.772 22.8137C110.511 22.8137 110.286 22.7266 110.1 22.5524C109.926 22.3657 109.838 22.1354 109.838 21.8617V9.95197C109.838 9.67835 109.932 9.45467 110.119 9.28053C110.306 9.09395 110.529 9.00009 110.79 9Z" fill="#134E4A"/>
<path d="M115.138 10.6801C115.412 10.6801 115.636 10.774 115.81 10.9606C115.984 11.1348 116.072 11.3585 116.072 11.6321V13.1066H117.565C117.813 13.1066 118.02 13.1937 118.181 13.3679C118.356 13.5297 118.443 13.7358 118.443 13.9847C118.442 14.2208 118.355 14.4195 118.181 14.5812C118.02 14.7429 117.813 14.8242 117.565 14.8242H116.072V20.294C116.072 20.5176 116.109 20.698 116.183 20.8348C116.258 20.9716 116.358 21.0655 116.482 21.1153C116.619 21.1651 116.756 21.1892 116.893 21.1892C117.03 21.1892 117.148 21.165 117.248 21.1153C117.36 21.0655 117.49 21.0404 117.639 21.0404C117.789 21.0404 117.926 21.1091 118.051 21.2459C118.175 21.3828 118.237 21.5697 118.237 21.806C118.237 22.1045 118.075 22.3475 117.752 22.5341C117.428 22.7207 117.08 22.8136 116.707 22.8137C116.495 22.8137 116.246 22.7953 115.959 22.758C115.673 22.7206 115.393 22.6267 115.12 22.4774C114.859 22.3281 114.641 22.0919 114.467 21.7685C114.292 21.4325 114.205 20.9652 114.205 20.3679V14.8242H113.178C112.93 14.8242 112.718 14.7429 112.543 14.5812C112.382 14.407 112.301 14.2017 112.301 13.9654C112.301 13.7167 112.382 13.5114 112.543 13.3497C112.718 13.1879 112.93 13.1066 113.178 13.1066H114.205V11.6321C114.205 11.3584 114.292 11.1348 114.467 10.9606C114.653 10.7741 114.877 10.6802 115.138 10.6801Z" fill="#134E4A"/>
<path d="M120.323 9C120.584 9.00009 120.802 9.09395 120.976 9.28053C121.163 9.45464 121.256 9.67847 121.256 9.95197V14.5376C121.286 14.4905 121.316 14.4423 121.349 14.3948C121.561 14.1086 121.816 13.8474 122.115 13.611C122.426 13.3745 122.768 13.1878 123.142 13.0509C123.515 12.9016 123.914 12.8271 124.337 12.8271C125.195 12.8272 125.861 13.0139 126.334 13.3872C126.807 13.748 127.137 14.2396 127.323 14.8617C127.522 15.4837 127.622 16.1681 127.622 16.9145V21.8617C127.622 22.1355 127.528 22.3657 127.341 22.5524C127.167 22.7265 126.95 22.8136 126.688 22.8137C126.414 22.8137 126.19 22.7266 126.016 22.5524C125.842 22.3657 125.755 22.1354 125.754 21.8617V16.9145C125.754 16.4792 125.693 16.0812 125.568 15.7205C125.456 15.3597 125.251 15.0732 124.952 14.8617C124.666 14.6502 124.262 14.5447 123.739 14.5447C123.254 14.5447 122.817 14.6501 122.432 14.8617C122.059 15.0732 121.766 15.3597 121.555 15.7205C121.356 16.0812 121.256 16.4792 121.256 16.9145V21.8617C121.256 22.1354 121.163 22.3657 120.976 22.5524C120.802 22.7265 120.584 22.8136 120.323 22.8137C120.049 22.8137 119.825 22.7266 119.651 22.5524C119.477 22.3657 119.389 22.1354 119.389 21.8617V9.95197C119.39 9.67843 119.477 9.45465 119.651 9.28053C119.825 9.09386 120.049 9 120.323 9Z" fill="#134E4A"/>
<defs>
<filter id="filter0_d_13333_2481" x="3.25" y="1.25" width="25.5" height="31.5" filterUnits="userSpaceOnUse" color-interpolation-filters="sRGB">
<feFlood flood-opacity="0" result="BackgroundImageFix"/>
<feColorMatrix in="SourceAlpha" type="matrix" values="0 0 0 0 0 0 0 0 0 0 0 0 0 0 0 0 0 0 127 0" result="hardAlpha"/>
<feOffset dy="1"/>
<feGaussianBlur stdDeviation="1"/>
<feComposite in2="hardAlpha" operator="out"/>
<feColorMatrix type="matrix" values="0 0 0 0 0.0666667 0 0 0 0 0.368627 0 0 0 0 0.34902 0 0 0 0.1 0"/>
<feBlend mode="normal" in2="BackgroundImageFix" result="effect1_dropShadow_13333_2481"/>
<feBlend mode="normal" in="SourceGraphic" in2="effect1_dropShadow_13333_2481" result="shape"/>
</filter>
<linearGradient id="paint0_linear_13333_2481" x1="4.5" y1="2" x2="27" y2="30" gradientUnits="userSpaceOnUse">
<stop offset="0.5" stop-color="#115E59"/>
<stop offset="1" stop-color="#A78BFA"/>
</linearGradient>
<linearGradient id="paint1_linear_13333_2481" x1="4.5" y1="2" x2="27" y2="30" gradientUnits="userSpaceOnUse">
<stop offset="0.5" stop-color="#115E59"/>
<stop offset="1" stop-color="#A78BFA"/>
</linearGradient>
</defs>
</svg>
